<svg width="579" height="179" viewBox="0 0 579 179" fill="none" xmlns="http://www.w3.org/2000/svg">
<path d="M1.24 0.6C1.16 1.34 0.96 2.1 1.02 2.83C1.36 6.96 1.89 11.07 2.88 15.11C4.97 23.67 8.83 31.38 14.46 38.11C21.07 46.01 29.28 51.82 39.03 55.28C42.35 56.46 45.81 57.26 49.23 58.12C50.71 58.49 52.26 58.57 53.78 58.79C53.78 58.97 53.78 59.16 53.78 59.34C53.59 59.34 53.39 59.34 53.2 59.34C52.92 59.33 52.64 59.32 52.36 59.31C52.17 59.29 51.99 59.28 51.8 59.26C51.72 59.26 51.63 59.26 51.55 59.26C51.36 59.26 51.18 59.26 50.99 59.26C50.77 59.27 50.55 59.29 50.33 59.3C49.55 59.28 48.77 59.27 47.99 59.25C47.9 59.26 47.81 59.28 47.72 59.29C47.61 59.29 47.5 59.31 47.39 59.32C46.7 59.32 46.01 59.32 45.33 59.33C45.21 59.33 45.1 59.33 44.98 59.33C44.69 59.33 44.4 59.31 44.11 59.31C43.87 59.31 43.62 59.31 43.38 59.31C42.02 59.29 40.67 59.27 39.31 59.25C37.11 59.25 34.92 59.25 32.72 59.25C31.71 59.25 30.7 59.25 29.69 59.25C28.43 59.25 27.17 59.25 25.91 59.25C25.83 59.25 25.75 59.25 25.67 59.25C23.5 59.24 21.33 59.21 19.16 59.21C15.19 59.21 11.22 59.23 7.24 59.24C7.08 59.26 6.93 59.27 6.77 59.29C6.67 59.29 6.57 59.3 6.46 59.31C5.64 59.28 4.82 59.26 4 59.23C3.47 59.21 2.93 59.19 2.4 59.18C1.07 59.14 1.01 59.2 1.01 60.58C1.01 71.28 1 81.97 1.03 92.67C1.06 102.46 0.97 112.26 1.29 122.05C1.42 126.1 2.2 130.19 3.18 134.14C4.63 139.97 6.96 145.48 10.38 150.51C13.72 155.42 17.48 159.93 22.1 163.69C26.53 167.29 31.4 170.18 36.68 172.36C40.94 174.12 45.35 175.44 49.91 176.18C52.28 176.57 54.63 177.06 57.01 177.29C58.72 177.46 60.47 177.26 62.2 177.23C62.38 177.46 62.52 177.83 62.75 177.89C62.95 177.94 63.41 177.7 63.46 177.51C63.74 176.43 64.55 176.54 65.37 176.54C163.31 176.54 261.24 176.54 359.18 176.54C430.97 176.54 502.76 176.54 574.55 176.54C575.14 176.54 575.76 176.33 576.33 176.44C576.86 176.54 577.33 176.93 577.82 177.21C578.1 177.37 578.37 177.57 578.64 177.75C578.64 178.08 578.76 178.52 578.14 178.35C578.02 178.32 577.87 178.35 577.74 178.35H0C0 118.91 0 59.46 0 0C0.4 0 0.8 0 1.2 0C1.21 0.2 1.22 0.4 1.23 0.6H1.24Z" fill="white"/>
</svg>
